<?xml version="1.0" encoding="utf-8"?>
<!-- Generator: Adobe Illustrator 16.0.0, SVG Export Plug-In . SVG Version: 6.00 Build 0)  -->
<!DOCTYPE svg PUBLIC "-//W3C//DTD SVG 1.1//EN" "http://www.w3.org/Graphics/SVG/1.1/DTD/svg11.dtd">
<svg version="1.1" id="Layer_1" xmlns="http://www.w3.org/2000/svg" xmlns:xlink="http://www.w3.org/1999/xlink" x="0px" y="0px"
	 width="160.75px" height="163.667px" viewBox="0 0 160.75 163.667" enable-background="new 0 0 160.75 163.667"
	 xml:space="preserve">
<path fill="#FFFFFF" d="M57.507,114.325c-5.138,0-5.301-5.133-5.301-5.133V58.61c0-3.042,1.423-4.358,2.817-4.919
	c1.383-0.556,3.881-0.293,5.326-0.664c2.557-0.653,2.453-2.198,2.453-2.198v-5.631c0-2.321,2.648-2.484,2.648-2.484h5.296
	c2.817,0,2.656,2.32,2.656,2.32v5.795c0,2.312,5.362,2.511,5.362,2.511l5.295-0.015c1.49-0.004,3.93-0.017,5.359-0.441
	c1.274-0.381,2.527-1.086,2.527-2.39v-5.296c0-2.484,2.648-2.484,2.648-2.484h4.965c0.918,0,1.559,0.318,2.004,0.733
	c0.882,0.825,0.98,3.119,0.98,4.605v2.689c0,2.157,5.298,2.57,5.298,2.57c5.296,0,5.296,5.131,5.296,5.131v50.913
	c0,4.64-5.631,4.969-5.631,4.969H57.507z M70.747,47.847c0-1.459-1.182-2.485-2.647-2.485h-0.165c-1.466,0-2.483,1.027-2.483,2.485
	v8.113c0,1.466,1.018,2.65,2.483,2.65H68.1c1.465,0,2.647-1.185,2.647-2.65V47.847z M68.1,61.257h-0.165
	c-1.466,0-2.567,1.19-2.567,2.648c0,1.464,1.187,2.655,2.652,2.655h0.167c1.458,0,2.647-1.189,2.647-2.655
	C70.834,62.447,69.565,61.257,68.1,61.257z M99.89,48.011c0-1.459-1.182-2.649-2.647-2.649h-0.166c-1.465,0-2.482,1.19-2.482,2.649
	v8.115c0,1.464,1.182,2.648,2.648,2.648c1.466,0,2.647-1.184,2.647-2.648V48.011z M97.242,61.257c-1.465,0-2.648,1.19-2.648,2.648
	c0,1.464,1.182,2.655,2.648,2.655c1.466,0,2.647-1.189,2.647-2.655C99.89,62.447,98.708,61.257,97.242,61.257z M107.79,74.341
	c0-2.924-2.374-5.054-5.296-5.054H62.857c-2.93,0-5.303,2.13-5.303,5.054v29.34c0,2.924,2.373,5.296,5.303,5.296h39.637
	c2.922,0,5.296-2.372,5.296-5.296V74.341z M93.498,94.196c-0.353,1.144-0.631,2.618-0.834,4.167
	c-0.195,1.479-1.488,2.688-2.98,2.688h-0.373c-1.491,0-2.549-1.202-2.285-2.67c0.436-2.433,1.013-4.697,1.732-6.393
	c0.697-1.651,1.688-3.17,2.972-4.863c0.9-1.188,0.46-2.124-1.032-2.124h-4.074c-1.49,0-2.701-1.188-2.701-2.654
	c0-1.465,1.211-2.654,2.701-2.654h10.691c1.491,0,2.7,1.115,2.7,2.494c0,1.378-0.929,3.268-2.095,4.197
	c-0.917,0.733-1.785,1.49-2.339,2.363C94.385,90.629,94.186,91.892,93.498,94.196z M71.805,87.589
	c-0.814,0.45-1.575,0.813-1.575,0.813s-0.347,0.196-1.094,0.635c-0.602,0.354-1.09-0.418-1.09-1.729c0-1.311,0.817-2.814,1.78-3.433
	c0.621-0.398,1.014-0.708,1.658-1.236c0.547-0.445,1.032-0.841,1.461-1.287c0.742-0.777,2.156-1.598,3.457-1.598
	c1.303,0,2.357,1.21,2.357,2.701v15.896c0,1.49-1.211,2.701-2.701,2.701h-0.047c-1.49,0-2.701-1.211-2.701-2.701v-8.997
	C73.311,87.863,72.662,87.118,71.805,87.589z"/>
<circle fill="none" stroke="#FFFFFF" stroke-width="4" stroke-miterlimit="10" cx="80.963" cy="82.257" r="71.758"/>
</svg>
