<?xml version="1.0" encoding="utf-8"?>
<!-- Generator: Adobe Illustrator 16.0.0, SVG Export Plug-In . SVG Version: 6.00 Build 0)  -->
<!DOCTYPE svg PUBLIC "-//W3C//DTD SVG 1.1//EN" "http://www.w3.org/Graphics/SVG/1.1/DTD/svg11.dtd">
<svg version="1.1" id="Layer_1" xmlns="http://www.w3.org/2000/svg" xmlns:xlink="http://www.w3.org/1999/xlink" x="0px" y="0px"
	 width="160.75px" height="163.667px" viewBox="0 0 160.75 163.667" enable-background="new 0 0 160.75 163.667"
	 xml:space="preserve">
<symbol  id="Notepad" viewBox="-31.947 -32 63.894 64">
	<path fill="#FFFFFF" d="M-7.636,21.898v2.074h5.845v-2.074c0-1.098,0.899-2,2-2h0.5c1.1,0,2,0.902,2,2v2.074h5.846v-2.074
		c0-1.098,0.898-2,2-2h0.5c1.1,0,2,0.902,2,2v2.074h1.191l3.807-3.738v-5.98h4v7.66l-6.172,6.059h-2.826V30c0,1.098-0.9,2-2,2h-0.5
		c-1.102,0-2-0.902-2-2v-2.027H2.709V30c0,1.098-0.9,2-2,2h-0.5c-1.101,0-2-0.902-2-2v-2.027h-5.845V30c0,1.098-0.9,2-2,2h-0.5
		c-1.101,0-2-0.902-2-2v-2.027h-5.845V30c0,1.098-0.9,2-2,2h-0.5c-1.102,0-2-0.902-2-2v-2.027h-9.467V-32h17.666l1.002,4h-14.668
		v51.973h5.467v-2.074c0-1.098,0.898-2,2-2h0.5c1.1,0,2,0.902,2,2v2.074h5.845v-2.074c0-1.098,0.899-2,2-2h0.5
		C-8.536,19.898-7.636,20.801-7.636,21.898z"/>
	<path fill="#FFFFFF" d="M30.762,1.594l-6.402,6.402c-1.557,1.559-4.074,1.586-5.598,0.066c-0.001-0.002-0.002-0.004-0.004-0.006
		v0.002L-4.586-15.285l-0.471-0.465l-4.041-16.133L7.02-27.84l1.504,1.531l0,0L30.824-4.004h-0.002
		C30.823-4.002,30.824-4.002,30.826-4C32.346-2.48,32.316,0.039,30.762,1.594z M-3.402-17.377l8.811-8.809l-8.272-2.072
		l-2.583,2.719L-3.402-17.377z M7.027-20.734l-4.996,4.996L18.758,0.988l4.994-4.996L7.027-20.734z"/>
</symbol>
<use xlink:href="#Notepad"  width="63.894" height="64" id="XMLID_1_" x="-31.947" y="-32" transform="matrix(1 0 0 -1 85.1875 81.9829)" overflow="visible"/>
<circle fill="none" stroke="#FFFFFF" stroke-width="4" stroke-miterlimit="10" cx="80.375" cy="81.983" r="71.758"/>
</svg>
