<?xml version="1.0" encoding="utf-8"?>
<!-- Generator: Adobe Illustrator 16.0.0, SVG Export Plug-In . SVG Version: 6.00 Build 0)  -->
<!DOCTYPE svg PUBLIC "-//W3C//DTD SVG 1.1//EN" "http://www.w3.org/Graphics/SVG/1.1/DTD/svg11.dtd">
<svg version="1.1" id="Layer_1" xmlns="http://www.w3.org/2000/svg" xmlns:xlink="http://www.w3.org/1999/xlink" x="0px" y="0px"
	 width="160.75px" height="163.667px" viewBox="0 0 160.75 163.667" enable-background="new 0 0 160.75 163.667"
	 xml:space="preserve">
<g>
	
		<ellipse transform="matrix(-0.7135 -0.7007 0.7007 -0.7135 72.2717 168.7392)" fill="#FFFFFF" cx="70.638" cy="69.592" rx="10.522" ry="20.826"/>
	<path fill="#FFFFFF" d="M68.807,125.767c0,0-0.684,2.73-5.729,1.332c-4.562-1.267-3.879-3.998-3.879-3.998l8.232-29.682
		l9.609,2.666L68.807,125.767z"/>
	<path fill="#FFFFFF" d="M78.822,95.8c0,0,1.475,1.64-2.527,5.016c-3.619,3.054-5.096,1.414-5.096,1.414L55.639,83.783l7.623-6.43
		L78.822,95.8z"/>
	<path fill="#FFFFFF" stroke="#E46166" stroke-miterlimit="10" d="M75.854,55.185c-4.568,1.638-4.498,4.522-4.498,4.522
		l0.072,31.825l0.033-0.014l0.023,10.116c0,0,0.068,2.887,4.201,1.404c4.568-1.639,4.498-4.523,4.498-4.523l-0.072-31.824
		l-0.035,0.013l-0.021-10.116C80.055,56.588,79.984,53.702,75.854,55.185z"/>
	<circle fill="#FFFFFF" cx="96.517" cy="54.061" r="9.401"/>
	<g>
		<path fill="#FDFDFE" d="M92.631,30.316c0,0-0.031,0.205-0.086,0.564c-0.059,0.354-0.143,0.857-0.244,1.463
			c-0.051,0.299-0.113,0.629-0.127,0.938c-0.012,0.138-0.023,0.279-0.035,0.425c0.055,0.167,0.066,0.392,0.145,0.523
			c0.068,0.141,0.139,0.284,0.211,0.429c0.094,0.164,0.188,0.331,0.275,0.503c0.201,0.348,0.404,0.7,0.607,1.054
			c0.195,0.363,0.393,0.737,0.555,1.148c0.078,0.214,0.172,0.395,0.195,0.666l0.045,0.373c-0.021,0.197-0.037,0.219-0.057,0.336
			c-0.082,0.38-0.127,0.735-0.258,1.091c-0.113,0.353-0.232,0.681-0.344,0.979c-0.225,0.591-0.457,1.047-0.611,1.377
			c-0.168,0.323-0.271,0.503-0.271,0.503s0.109-0.835,0.326-2.026c0.045-0.294,0.096-0.609,0.16-0.937
			c0.078-0.318,0.066-0.711,0.123-1.085l0.027-0.237l-0.057-0.206c-0.012-0.127-0.111-0.305-0.172-0.468
			c-0.141-0.334-0.336-0.682-0.537-1.032c-0.195-0.361-0.389-0.723-0.582-1.078c-0.094-0.188-0.182-0.377-0.266-0.563
			c-0.086-0.194-0.162-0.44-0.232-0.651c-0.074-0.222-0.068-0.386-0.096-0.576c0.01-0.316,0.076-0.43,0.111-0.644
			c0.068-0.391,0.199-0.698,0.312-0.99C92.191,31.024,92.631,30.316,92.631,30.316z"/>
	</g>
	<g>
		<path fill="#FDFDFE" d="M95.484,30.316c0,0-0.031,0.205-0.086,0.564c-0.059,0.354-0.143,0.857-0.244,1.463
			c-0.051,0.299-0.113,0.629-0.127,0.938c-0.012,0.138-0.023,0.279-0.035,0.425c0.055,0.167,0.066,0.392,0.145,0.523
			c0.068,0.141,0.139,0.284,0.211,0.429c0.094,0.164,0.188,0.331,0.275,0.503c0.201,0.348,0.404,0.7,0.607,1.054
			c0.195,0.363,0.393,0.737,0.555,1.148c0.078,0.214,0.172,0.395,0.195,0.666l0.045,0.373c-0.021,0.197-0.037,0.219-0.057,0.336
			c-0.082,0.38-0.127,0.735-0.258,1.091c-0.113,0.353-0.232,0.681-0.344,0.979c-0.225,0.591-0.457,1.047-0.611,1.377
			c-0.168,0.323-0.271,0.503-0.271,0.503s0.109-0.835,0.326-2.026c0.045-0.294,0.096-0.609,0.16-0.937
			c0.078-0.318,0.066-0.711,0.123-1.085l0.027-0.237l-0.057-0.206c-0.012-0.127-0.111-0.305-0.172-0.468
			c-0.141-0.334-0.336-0.682-0.537-1.032c-0.195-0.361-0.389-0.723-0.582-1.078c-0.094-0.188-0.182-0.377-0.266-0.563
			c-0.086-0.194-0.162-0.44-0.232-0.651c-0.074-0.222-0.068-0.386-0.096-0.576c0.01-0.316,0.076-0.43,0.111-0.644
			c0.068-0.391,0.199-0.698,0.312-0.99C95.045,31.024,95.484,30.316,95.484,30.316z"/>
	</g>
	<g>
		<path fill="#FDFDFE" d="M98.51,30.316c0,0-0.031,0.205-0.084,0.564c-0.061,0.354-0.145,0.857-0.246,1.463
			c-0.051,0.299-0.113,0.629-0.127,0.938c-0.012,0.138-0.023,0.279-0.035,0.424c0.055,0.167,0.066,0.393,0.143,0.524
			c0.07,0.141,0.141,0.283,0.213,0.429c0.094,0.164,0.188,0.331,0.275,0.502c0.201,0.348,0.404,0.701,0.607,1.055
			c0.195,0.363,0.393,0.737,0.555,1.148c0.078,0.214,0.172,0.395,0.195,0.666l0.045,0.372c-0.021,0.198-0.037,0.22-0.057,0.337
			c-0.08,0.38-0.127,0.735-0.258,1.091c-0.113,0.353-0.232,0.681-0.344,0.979c-0.223,0.592-0.455,1.048-0.611,1.378
			c-0.166,0.323-0.271,0.503-0.271,0.503s0.109-0.835,0.326-2.026c0.045-0.295,0.096-0.609,0.162-0.937
			c0.076-0.318,0.064-0.712,0.121-1.085l0.027-0.237l-0.057-0.206c-0.012-0.127-0.111-0.305-0.172-0.469
			c-0.141-0.333-0.336-0.681-0.537-1.031c-0.195-0.361-0.391-0.723-0.582-1.079c-0.094-0.187-0.182-0.376-0.266-0.563
			c-0.086-0.193-0.162-0.439-0.232-0.651c-0.074-0.222-0.068-0.385-0.096-0.576c0.01-0.315,0.076-0.429,0.111-0.644
			c0.068-0.391,0.199-0.697,0.312-0.99C98.072,31.024,98.51,30.316,98.51,30.316z"/>
	</g>
	<line fill="none" stroke="#FFFFFF" stroke-miterlimit="10" x1="98.486" y1="64.079" x2="99.877" y2="69.172"/>
	<line fill="none" stroke="#FFFFFF" stroke-miterlimit="10" x1="97.455" y1="64.045" x2="96.346" y2="69.205"/>
	<line fill="none" stroke="#FFFFFF" stroke-miterlimit="10" x1="99.877" y1="63.828" x2="103.514" y2="67.652"/>
</g>
<circle fill="none" stroke="#FFFFFF" stroke-width="4" stroke-miterlimit="10" cx="81.201" cy="80.812" r="71.758"/>
</svg>
